<mxfile host="65bd71144e">
    <diagram id="6AbYBxDoQgBNnA4P9w5V" name="Page-1">
        <mxGraphModel dx="4886" dy="2852" grid="1" gridSize="10" guides="1" tooltips="1" connect="1" arrows="1" fold="1" page="1" pageScale="1" pageWidth="1100" pageHeight="850" math="0" shadow="0">
            <root>
                <mxCell id="0"/>
                <mxCell id="1" parent="0"/>
                <mxCell id="220" value="" style="rounded=0;whiteSpace=wrap;html=1;align=left;shadow=1;" parent="1" vertex="1">
                    <mxGeometry x="610" y="670" width="190" height="120" as="geometry"/>
                </mxCell>
                <mxCell id="170" value="" style="rounded=0;whiteSpace=wrap;html=1;" parent="1" vertex="1">
                    <mxGeometry x="3120" y="1440" width="270" height="80" as="geometry"/>
                </mxCell>
                <mxCell id="171" value="" style="rounded=0;whiteSpace=wrap;html=1;" parent="1" vertex="1">
                    <mxGeometry x="3000" y="1440" width="120" height="80" as="geometry"/>
                </mxCell>
                <mxCell id="172" value="" style="rounded=0;whiteSpace=wrap;html=1;" parent="1" vertex="1">
                    <mxGeometry x="2880" y="1440" width="120" height="80" as="geometry"/>
                </mxCell>
                <mxCell id="173" value="" style="rounded=0;whiteSpace=wrap;html=1;" parent="1" vertex="1">
                    <mxGeometry x="2760" y="1440" width="120" height="80" as="geometry"/>
                </mxCell>
                <mxCell id="174" value="" style="rounded=0;whiteSpace=wrap;html=1;" parent="1" vertex="1">
                    <mxGeometry x="2640" y="1440" width="120" height="80" as="geometry"/>
                </mxCell>
                <mxCell id="165" value="&lt;span style=&quot;color: rgb(63, 63, 63); font-family: &amp;quot;Times New Roman&amp;quot;;&quot;&gt;H879965&lt;/span&gt;" style="text;strokeColor=none;fillColor=none;align=left;verticalAlign=middle;spacingLeft=4;spacingRight=4;overflow=hidden;points=[[0,0.5],[1,0.5]];portConstraint=eastwest;rotatable=0;whiteSpace=wrap;html=1;" parent="1" vertex="1">
                    <mxGeometry x="2640" y="1467" width="120" height="30" as="geometry"/>
                </mxCell>
                <mxCell id="166" value="&lt;font face=&quot;Times New Roman&quot;&gt;5&lt;/font&gt;" style="text;strokeColor=none;fillColor=none;align=left;verticalAlign=middle;spacingLeft=4;spacingRight=4;overflow=hidden;points=[[0,0.5],[1,0.5]];portConstraint=eastwest;rotatable=0;whiteSpace=wrap;html=1;" parent="1" vertex="1">
                    <mxGeometry x="2760" y="1467" width="120" height="30" as="geometry"/>
                </mxCell>
                <mxCell id="167" value="&lt;font face=&quot;Times New Roman&quot;&gt;E&lt;/font&gt;" style="text;strokeColor=none;fillColor=none;align=left;verticalAlign=middle;spacingLeft=4;spacingRight=4;overflow=hidden;points=[[0,0.5],[1,0.5]];portConstraint=eastwest;rotatable=0;whiteSpace=wrap;html=1;" parent="1" vertex="1">
                    <mxGeometry x="2880" y="1467" width="120" height="30" as="geometry"/>
                </mxCell>
                <mxCell id="168" value="&lt;font face=&quot;Times New Roman&quot; style=&quot;color: rgb(0, 0, 0);&quot;&gt;Yes&lt;/font&gt;" style="text;strokeColor=none;fillColor=none;align=left;verticalAlign=middle;spacingLeft=4;spacingRight=4;overflow=hidden;points=[[0,0.5],[1,0.5]];portConstraint=eastwest;rotatable=0;whiteSpace=wrap;html=1;" parent="1" vertex="1">
                    <mxGeometry x="3000" y="1467" width="120" height="30" as="geometry"/>
                </mxCell>
                <mxCell id="169" value="&lt;span style=&quot;color: rgb(63, 63, 63); font-family: &amp;quot;Times New Roman&amp;quot;; text-align: center;&quot;&gt;Success&lt;/span&gt;" style="text;strokeColor=none;fillColor=none;align=left;verticalAlign=middle;spacingLeft=4;spacingRight=4;overflow=hidden;points=[[0,0.5],[1,0.5]];portConstraint=eastwest;rotatable=0;whiteSpace=wrap;html=1;" parent="1" vertex="1">
                    <mxGeometry x="3120" y="1467" width="270" height="30" as="geometry"/>
                </mxCell>
                <mxCell id="269" style="edgeStyle=orthogonalEdgeStyle;html=1;entryX=0;entryY=0.5;entryDx=0;entryDy=0;strokeWidth=3;endArrow=doubleBlock;endFill=1;" parent="1" source="49" target="247" edge="1">
                    <mxGeometry relative="1" as="geometry"/>
                </mxCell>
                <mxCell id="270" style="edgeStyle=orthogonalEdgeStyle;html=1;flowAnimation=0;strokeWidth=3;endArrow=diamond;endFill=1;dashed=1;" parent="1" source="49" edge="1">
                    <mxGeometry relative="1" as="geometry">
                        <mxPoint x="1620" y="1080" as="targetPoint"/>
                    </mxGeometry>
                </mxCell>
                <mxCell id="49" value="" style="rounded=0;whiteSpace=wrap;html=1;dashed=1;fillColor=#CCFFFF;gradientColor=none;shadow=1;" parent="1" vertex="1">
                    <mxGeometry x="800" y="810" width="580" height="340" as="geometry"/>
                </mxCell>
                <mxCell id="2" value="&lt;h1 style=&quot;margin-top: 0px;&quot;&gt;&lt;font style=&quot;font-weight: normal; font-size: 30px;&quot; face=&quot;Times New Roman&quot;&gt;02.Package&lt;/font&gt;&lt;/h1&gt;" style="text;html=1;whiteSpace=wrap;overflow=hidden;rounded=1;fillColor=#e1d5e7;strokeColor=none;align=center;" parent="1" vertex="1">
                    <mxGeometry x="-50" y="35" width="160" height="45" as="geometry"/>
                </mxCell>
                <mxCell id="216" style="edgeStyle=orthogonalEdgeStyle;html=1;entryX=0.421;entryY=-0.038;entryDx=0;entryDy=0;strokeWidth=3;flowAnimation=1;entryPerimeter=0;" parent="1" source="4" target="12" edge="1">
                    <mxGeometry relative="1" as="geometry"/>
                </mxCell>
                <mxCell id="221" style="edgeStyle=orthogonalEdgeStyle;html=1;entryX=0.192;entryY=-0.051;entryDx=0;entryDy=0;strokeWidth=3;flowAnimation=1;entryPerimeter=0;" parent="1" source="4" target="44" edge="1">
                    <mxGeometry relative="1" as="geometry">
                        <Array as="points">
                            <mxPoint x="30" y="425"/>
                            <mxPoint x="30" y="1385"/>
                            <mxPoint x="1098" y="1385"/>
                        </Array>
                        <mxPoint x="1070" y="1485" as="targetPoint"/>
                    </mxGeometry>
                </mxCell>
                <mxCell id="4" value="&lt;b&gt;&lt;font face=&quot;Times New Roman&quot;&gt;Confident Parcels&lt;/font&gt;&lt;/b&gt;&lt;div&gt;&lt;div&gt;&lt;font face=&quot;Times New Roman&quot;&gt;confident_labels = [&lt;/font&gt;&lt;/div&gt;&lt;div&gt;&lt;font face=&quot;Times New Roman&quot;&gt;01. &#39;regular inside parcel&#39;,&lt;/font&gt;&lt;/div&gt;&lt;div&gt;&lt;font face=&quot;Times New Roman&quot;&gt;02. &#39;regular corner parcel&#39;,&lt;/font&gt;&lt;/div&gt;&lt;div&gt;&lt;font face=&quot;Times New Roman&quot;&gt;03. &#39;special parcel_standard&#39;,&lt;/font&gt;&lt;/div&gt;&lt;div&gt;&lt;font face=&quot;Times New Roman&quot;&gt;04. &#39;curve parcel_standard&#39;,&lt;/font&gt;&lt;/div&gt;&lt;div&gt;&lt;font face=&quot;Times New Roman&quot;&gt;05.&#39;cul_de_sac parcel_standard&#39;,&lt;/font&gt;&lt;/div&gt;&lt;div&gt;&lt;font face=&quot;Times New Roman&quot;&gt;06. &#39;no_match_address_standard&#39;&lt;/font&gt;&lt;/div&gt;&lt;div&gt;&lt;font face=&quot;Times New Roman&quot;&gt;&lt;font style=&quot;&quot;&gt;&lt;span style=&quot;background-color: transparent;&quot;&gt;07. &#39;&lt;/span&gt;&lt;/font&gt;&lt;span style=&quot;background-color: transparent;&quot;&gt;no_address_parcel_standard&#39;&lt;/span&gt;&lt;span style=&quot;background-color: transparent;&quot;&gt;]&lt;/span&gt;&lt;/font&gt;&lt;/div&gt;&lt;/div&gt;" style="rounded=0;whiteSpace=wrap;html=1;align=left;shadow=1;" parent="1" vertex="1">
                    <mxGeometry x="230" y="345" width="210" height="160" as="geometry"/>
                </mxCell>
                <mxCell id="8" value="&lt;b&gt;&lt;font face=&quot;Times New Roman&quot;&gt;Non Confident Parcels&lt;/font&gt;&lt;/b&gt;&lt;div&gt;&lt;div&gt;&lt;font face=&quot;Times New Roman&quot;&gt;non_confident_labels = [&lt;/font&gt;&lt;/div&gt;&lt;div&gt;&lt;font face=&quot;Times New Roman&quot;&gt;01. &#39;jagged parcel&#39;,&lt;/font&gt;&lt;/div&gt;&lt;div&gt;&lt;font face=&quot;Times New Roman&quot;&gt;02. &#39;duplicated adress&#39;,&lt;/font&gt;&lt;/div&gt;&lt;div&gt;&lt;font face=&quot;Times New Roman&quot;&gt;03. &#39;no match address other&#39;,&lt;/font&gt;&lt;/div&gt;&lt;div&gt;&lt;font face=&quot;Times New Roman&quot;&gt;04. &#39;special parcel other&#39;,&lt;/font&gt;&lt;/div&gt;&lt;div&gt;&lt;font face=&quot;Times New Roman&quot;&gt;05.&#39;cul_de_sac parcel_other&#39;,&lt;/font&gt;&lt;/div&gt;&lt;div&gt;&lt;font face=&quot;Times New Roman&quot;&gt;06. &#39;curve parcel other&#39;&lt;/font&gt;&lt;/div&gt;&lt;div&gt;&lt;font face=&quot;Times New Roman&quot;&gt;&lt;font style=&quot;&quot;&gt;&lt;span style=&quot;background-color: transparent;&quot;&gt;07. &#39;&lt;/span&gt;&lt;/font&gt;&lt;span style=&quot;background-color: transparent;&quot;&gt;no_address_parcel_other&#39;&lt;/span&gt;&lt;span style=&quot;background-color: transparent;&quot;&gt;]&lt;/span&gt;&lt;/font&gt;&lt;/div&gt;&lt;/div&gt;" style="rounded=0;whiteSpace=wrap;html=1;align=left;shadow=1;" parent="1" vertex="1">
                    <mxGeometry x="230" y="130" width="210" height="160" as="geometry"/>
                </mxCell>
                <mxCell id="10" value="" style="endArrow=doubleBlock;html=1;exitX=1;exitY=0.5;exitDx=0;exitDy=0;entryX=0;entryY=0.5;entryDx=0;entryDy=0;strokeWidth=3;flowAnimation=0;strokeColor=#000000;shadow=1;endFill=1;" parent="1" source="8" target="11" edge="1">
                    <mxGeometry width="50" height="50" relative="1" as="geometry">
                        <mxPoint x="650" y="480" as="sourcePoint"/>
                        <mxPoint x="540" y="220" as="targetPoint"/>
                    </mxGeometry>
                </mxCell>
                <mxCell id="11" value="&lt;font face=&quot;Times New Roman&quot; style=&quot;color: rgb(111, 111, 111);&quot;&gt;Because we cannot approve the accuracy of edge classification for non-confidential parcels, thus we cannot conduct the final &lt;b&gt;check_footprint()&lt;/b&gt;,&amp;nbsp;but for intial zoning constraints check, we still can conduct, but still exists some tips in this process.&lt;/font&gt;&lt;div&gt;&lt;font face=&quot;Times New Roman&quot; style=&quot;color: rgb(111, 111, 111);&quot;&gt;for lot_area, we calculated the area of each parcel based on EPSG:3081, and transfer it into acres, for lot-depth and lot_width, we assigned value 1.&lt;/font&gt;&lt;/div&gt;" style="text;html=1;align=left;verticalAlign=middle;whiteSpace=wrap;rounded=0;" parent="1" vertex="1">
                    <mxGeometry x="590" y="167.5" width="450" height="85" as="geometry"/>
                </mxCell>
                <mxCell id="29" style="edgeStyle=orthogonalEdgeStyle;html=1;entryX=0.5;entryY=0;entryDx=0;entryDy=0;strokeWidth=3;shadow=1;flowAnimation=1;shape=link;" parent="1" target="27" edge="1">
                    <mxGeometry relative="1" as="geometry">
                        <mxPoint x="800" y="720" as="sourcePoint"/>
                    </mxGeometry>
                </mxCell>
                <mxCell id="12" value="&lt;b&gt;&lt;font face=&quot;Times New Roman&quot;&gt;Generated Confidential/Non Confidential Parcels Dimention Dataset Sepertately&lt;/font&gt;&lt;/b&gt;&lt;div&gt;&lt;font face=&quot;Times New Roman&quot;&gt;01.parcel id&lt;/font&gt;&lt;/div&gt;&lt;div&gt;&lt;font face=&quot;Times New Roman&quot;&gt;02.prop_id&lt;/font&gt;&lt;/div&gt;&lt;div&gt;&lt;font face=&quot;Times New Roman&quot;&gt;03.lot depth&lt;/font&gt;&lt;/div&gt;&lt;div&gt;&lt;font face=&quot;Times New Roman&quot;&gt;04.lot_area&lt;/font&gt;&lt;/div&gt;&lt;div&gt;&lt;font face=&quot;Times New Roman&quot;&gt;05.zoning id&lt;/font&gt;&lt;/div&gt;" style="rounded=0;whiteSpace=wrap;html=1;align=left;shadow=1;" parent="1" vertex="1">
                    <mxGeometry x="600" y="660" width="190" height="120" as="geometry"/>
                </mxCell>
                <mxCell id="22" style="edgeStyle=none;html=1;entryX=0;entryY=0.5;entryDx=0;entryDy=0;strokeWidth=3;shape=flexArrow;" parent="1" target="12" edge="1">
                    <mxGeometry relative="1" as="geometry">
                        <mxPoint x="-350" y="720" as="sourcePoint"/>
                    </mxGeometry>
                </mxCell>
                <mxCell id="23" value="&lt;font style=&quot;font-size: 15px;&quot; face=&quot;Times New Roman&quot;&gt;Intergrate &lt;b&gt;find_district _idx()&lt;/b&gt;&lt;/font&gt;" style="text;html=1;align=center;verticalAlign=middle;whiteSpace=wrap;rounded=0;rotation=0;" parent="1" vertex="1">
                    <mxGeometry x="200" y="681.74" width="250" height="30" as="geometry"/>
                </mxCell>
                <mxCell id="31" style="edgeStyle=orthogonalEdgeStyle;html=1;entryX=0.5;entryY=0;entryDx=0;entryDy=0;strokeWidth=2;flowAnimation=1;" parent="1" source="27" target="30" edge="1">
                    <mxGeometry relative="1" as="geometry"/>
                </mxCell>
                <mxCell id="27" value="&lt;font face=&quot;Times New Roman&quot;&gt;&lt;b&gt;check_land use()&lt;/b&gt;&lt;/font&gt;" style="shape=step;perimeter=stepPerimeter;whiteSpace=wrap;html=1;fixedSize=1;" parent="1" vertex="1">
                    <mxGeometry x="810" y="835" width="140" height="40" as="geometry"/>
                </mxCell>
                <mxCell id="36" style="edgeStyle=orthogonalEdgeStyle;html=1;flowAnimation=1;strokeWidth=3;" parent="1" source="30" target="35" edge="1">
                    <mxGeometry relative="1" as="geometry"/>
                </mxCell>
                <mxCell id="30" value="&lt;font face=&quot;Times New Roman&quot;&gt;Step 1: check_height&lt;/font&gt;&lt;div&gt;&lt;font face=&quot;Times New Roman&quot;&gt;Step 2: check_stories&lt;/font&gt;&lt;/div&gt;&lt;div&gt;&lt;font face=&quot;Times New Roman&quot;&gt;Step 3:check_unit_size&lt;/font&gt;&lt;/div&gt;&lt;div&gt;&lt;font face=&quot;Times New Roman&quot;&gt;Step 4; check_far&lt;/font&gt;&lt;/div&gt;&lt;div&gt;&lt;font face=&quot;Times New Roman&quot;&gt;Step 5: check_bedrooms&lt;/font&gt;&lt;/div&gt;&lt;div&gt;&lt;font face=&quot;Times New Roman&quot;&gt;Step 6: check_lot_coverage&lt;/font&gt;&lt;/div&gt;&lt;div&gt;&lt;font face=&quot;Times New Roman&quot;&gt;Step 7: check_far&lt;/font&gt;&lt;/div&gt;&lt;div&gt;&lt;font face=&quot;Times New Roman&quot;&gt;Step 8: check_height_eave&lt;/font&gt;&lt;/div&gt;&lt;div&gt;&lt;font face=&quot;Times New Roman&quot;&gt;Step 9: check_unit_qty&lt;/font&gt;&lt;/div&gt;" style="shape=step;perimeter=stepPerimeter;whiteSpace=wrap;html=1;fixedSize=1;" parent="1" vertex="1">
                    <mxGeometry x="920" y="985" width="230" height="140" as="geometry"/>
                </mxCell>
                <mxCell id="32" value="&lt;font style=&quot;color: rgb(255, 0, 0);&quot;&gt;Need Identify the ordinace of following check_functions&lt;/font&gt;" style="text;html=1;align=center;verticalAlign=middle;whiteSpace=wrap;rounded=0;" parent="1" vertex="1">
                    <mxGeometry x="880" y="895" width="170" height="30" as="geometry"/>
                </mxCell>
                <mxCell id="33" value="&lt;b&gt;&lt;font face=&quot;Times New Roman&quot;&gt;Why?&lt;/font&gt;&lt;/b&gt;&lt;div&gt;&lt;font face=&quot;Times New Roman&quot;&gt;We randomly extracted 25% of parcels in the total parcels, and run each intial check functions speratly, and found which one can filtered more parcels based on constraints, which will accelerate our operated speed significantly.&amp;nbsp;&lt;/font&gt;&lt;/div&gt;" style="shape=note;whiteSpace=wrap;html=1;backgroundOutline=1;darkOpacity=0.05;" parent="1" vertex="1">
                    <mxGeometry x="1230" y="855" width="130" height="190" as="geometry"/>
                </mxCell>
                <mxCell id="34" style="edgeStyle=none;html=1;entryX=0;entryY=0.289;entryDx=0;entryDy=0;entryPerimeter=0;endArrow=none;endFill=0;dashed=1;" parent="1" source="32" target="33" edge="1">
                    <mxGeometry relative="1" as="geometry"/>
                </mxCell>
                <mxCell id="35" value="&lt;b&gt;&lt;font face=&quot;Times New Roman&quot;&gt;Allowed Tidyparcels under Constraints&lt;/font&gt;&lt;/b&gt;&lt;div&gt;&lt;font face=&quot;Times New Roman&quot;&gt;Our tidybuilding are allowed be built in those parcels based on the zoning constraints.&lt;br&gt;Including &lt;b&gt;Maybe and True&lt;/b&gt;&lt;/font&gt;&lt;/div&gt;" style="rounded=0;whiteSpace=wrap;html=1;align=left;" parent="1" vertex="1">
                    <mxGeometry x="1040" y="1220" width="190" height="120" as="geometry"/>
                </mxCell>
                <mxCell id="40" value="&lt;font style=&quot;font-size: 18px; line-height: 100%;&quot; face=&quot;Times New Roman&quot;&gt;Provided &lt;font style=&quot;color: rgb(255, 0, 0);&quot;&gt;parcel_id&lt;/font&gt;, &lt;font style=&quot;color: rgb(255, 0, 0);&quot;&gt;prop_id&lt;/font&gt;, and corresponding &lt;font style=&quot;color: rgb(255, 0, 0);&quot;&gt;zoning_id&lt;/font&gt;&lt;/font&gt;" style="text;html=1;align=left;verticalAlign=middle;whiteSpace=wrap;rounded=0;" parent="1" vertex="1">
                    <mxGeometry x="1212" y="1434" width="240" height="30" as="geometry"/>
                </mxCell>
                <mxCell id="41" value="&lt;font style=&quot;font-size: 18px; line-height: 100%;&quot; face=&quot;Times New Roman&quot;&gt;Provided &lt;font style=&quot;color: rgb(255, 0, 0);&quot;&gt;side&lt;/font&gt;, &lt;font style=&quot;color: rgb(255, 0, 0);&quot;&gt;and geomtry&lt;/font&gt;&lt;/font&gt;" style="text;html=1;align=left;verticalAlign=middle;whiteSpace=wrap;rounded=0;" parent="1" vertex="1">
                    <mxGeometry x="632.9" y="1340" width="237.1" height="30" as="geometry"/>
                </mxCell>
                <mxCell id="52" style="edgeStyle=orthogonalEdgeStyle;html=1;strokeWidth=3;flowAnimation=1;" parent="1" source="44" target="51" edge="1">
                    <mxGeometry relative="1" as="geometry"/>
                </mxCell>
                <mxCell id="44" value="&lt;font face=&quot;Times New Roman&quot;&gt;&lt;b&gt;get_buildable area()&lt;/b&gt;&lt;/font&gt;" style="shape=step;perimeter=stepPerimeter;whiteSpace=wrap;html=1;fixedSize=1;" parent="1" vertex="1">
                    <mxGeometry x="1060" y="1550" width="200" height="50" as="geometry"/>
                </mxCell>
                <mxCell id="224" style="edgeStyle=orthogonalEdgeStyle;html=1;entryX=0;entryY=0.5;entryDx=0;entryDy=0;strokeWidth=3;" parent="1" source="46" target="51" edge="1">
                    <mxGeometry relative="1" as="geometry">
                        <Array as="points">
                            <mxPoint x="420" y="1795"/>
                        </Array>
                    </mxGeometry>
                </mxCell>
                <mxCell id="282" style="edgeStyle=none;html=1;shape=flexArrow;strokeWidth=3;" parent="1" edge="1">
                    <mxGeometry relative="1" as="geometry">
                        <mxPoint x="800" y="975.0599999999995" as="targetPoint"/>
                        <mxPoint x="510" y="975" as="sourcePoint"/>
                    </mxGeometry>
                </mxCell>
                <mxCell id="46" value="&lt;font face=&quot;Times New Roman&quot; style=&quot;font-size: 20px; color: rgb(255, 51, 51);&quot;&gt;&lt;b style=&quot;&quot;&gt;Tidybuilding&lt;/b&gt;&lt;/font&gt;&lt;div&gt;&lt;font style=&quot;font-size: 20px; color: rgb(255, 51, 51);&quot; face=&quot;Times New Roman&quot;&gt;&lt;b style=&quot;&quot;&gt;Feeds&lt;/b&gt;&lt;/font&gt;&lt;/div&gt;" style="rounded=1;whiteSpace=wrap;html=1;strokeColor=none;shadow=1;" parent="1" vertex="1">
                    <mxGeometry x="350" y="950" width="140" height="64.88" as="geometry"/>
                </mxCell>
                <mxCell id="108" style="edgeStyle=orthogonalEdgeStyle;html=1;entryX=0;entryY=0.5;entryDx=0;entryDy=0;strokeWidth=3;flowAnimation=1;" parent="1" source="51" target="89" edge="1">
                    <mxGeometry relative="1" as="geometry"/>
                </mxCell>
                <mxCell id="51" value="&lt;b&gt;&lt;font face=&quot;Times New Roman&quot;&gt;check_footprint()&lt;/font&gt;&lt;/b&gt;" style="shape=step;perimeter=stepPerimeter;whiteSpace=wrap;html=1;fixedSize=1;" parent="1" vertex="1">
                    <mxGeometry x="1230" y="1770" width="200" height="50" as="geometry"/>
                </mxCell>
                <mxCell id="158" value="" style="rounded=0;whiteSpace=wrap;html=1;" parent="1" vertex="1">
                    <mxGeometry x="3120" y="1410" width="270" height="30" as="geometry"/>
                </mxCell>
                <mxCell id="157" value="" style="rounded=0;whiteSpace=wrap;html=1;" parent="1" vertex="1">
                    <mxGeometry x="3000" y="1410" width="120" height="30" as="geometry"/>
                </mxCell>
                <mxCell id="156" value="" style="rounded=0;whiteSpace=wrap;html=1;" parent="1" vertex="1">
                    <mxGeometry x="2880" y="1410" width="120" height="30" as="geometry"/>
                </mxCell>
                <mxCell id="155" value="" style="rounded=0;whiteSpace=wrap;html=1;" parent="1" vertex="1">
                    <mxGeometry x="2760" y="1410" width="120" height="30" as="geometry"/>
                </mxCell>
                <mxCell id="151" value="" style="rounded=0;whiteSpace=wrap;html=1;" parent="1" vertex="1">
                    <mxGeometry x="2640" y="1410" width="120" height="30" as="geometry"/>
                </mxCell>
                <mxCell id="133" value="&lt;span style=&quot;color: rgb(63, 63, 63); font-family: &amp;quot;Times New Roman&amp;quot;;&quot;&gt;C899770&lt;/span&gt;" style="text;strokeColor=none;fillColor=none;align=left;verticalAlign=middle;spacingLeft=4;spacingRight=4;overflow=hidden;points=[[0,0.5],[1,0.5]];portConstraint=eastwest;rotatable=0;whiteSpace=wrap;html=1;" parent="1" vertex="1">
                    <mxGeometry x="2640" y="1410" width="120" height="30" as="geometry"/>
                </mxCell>
                <mxCell id="137" value="&lt;font face=&quot;Times New Roman&quot;&gt;3&lt;/font&gt;" style="text;strokeColor=none;fillColor=none;align=left;verticalAlign=middle;spacingLeft=4;spacingRight=4;overflow=hidden;points=[[0,0.5],[1,0.5]];portConstraint=eastwest;rotatable=0;whiteSpace=wrap;html=1;" parent="1" vertex="1">
                    <mxGeometry x="2760" y="1410" width="120" height="30" as="geometry"/>
                </mxCell>
                <mxCell id="141" value="&lt;font face=&quot;Times New Roman&quot;&gt;A&lt;/font&gt;" style="text;strokeColor=none;fillColor=none;align=left;verticalAlign=middle;spacingLeft=4;spacingRight=4;overflow=hidden;points=[[0,0.5],[1,0.5]];portConstraint=eastwest;rotatable=0;whiteSpace=wrap;html=1;" parent="1" vertex="1">
                    <mxGeometry x="2880" y="1410" width="120" height="30" as="geometry"/>
                </mxCell>
                <mxCell id="145" value="&lt;font face=&quot;Times New Roman&quot;&gt;False&lt;/font&gt;" style="text;strokeColor=none;fillColor=none;align=left;verticalAlign=middle;spacingLeft=4;spacingRight=4;overflow=hidden;points=[[0,0.5],[1,0.5]];portConstraint=eastwest;rotatable=0;whiteSpace=wrap;html=1;" parent="1" vertex="1">
                    <mxGeometry x="3000" y="1410" width="120" height="30" as="geometry"/>
                </mxCell>
                <mxCell id="149" value="&lt;div style=&quot;&quot;&gt;&lt;span style=&quot;font-family: &amp;quot;Times New Roman&amp;quot;; color: rgb(0, 0, 0);&quot;&gt;Our building is not allowed be built in this parcel because not meet the&amp;nbsp;&lt;/span&gt;&lt;span style=&quot;font-family: &amp;quot;Times New Roman&amp;quot;;&quot;&gt;zoning A constraints&lt;/span&gt;&lt;/div&gt;" style="text;strokeColor=none;fillColor=none;align=left;verticalAlign=middle;spacingLeft=4;spacingRight=4;overflow=hidden;points=[[0,0.5],[1,0.5]];portConstraint=eastwest;rotatable=0;whiteSpace=wrap;html=1;" parent="1" vertex="1">
                    <mxGeometry x="3120" y="1410" width="270" height="30" as="geometry"/>
                </mxCell>
                <mxCell id="110" value="&lt;font face=&quot;Times New Roman&quot;&gt;Prop ID&lt;/font&gt;" style="swimlane;fontStyle=0;childLayout=stackLayout;horizontal=1;startSize=30;horizontalStack=0;resizeParent=1;resizeParentMax=0;resizeLast=0;collapsible=1;marginBottom=0;whiteSpace=wrap;html=1;" parent="1" vertex="1">
                    <mxGeometry x="2640" y="1320" width="120" height="90" as="geometry"/>
                </mxCell>
                <mxCell id="111" value="&lt;span style=&quot;color: rgb(63, 63, 63); font-family: &amp;quot;Times New Roman&amp;quot;;&quot;&gt;B100357&lt;/span&gt;" style="text;strokeColor=none;fillColor=none;align=left;verticalAlign=middle;spacingLeft=4;spacingRight=4;overflow=hidden;points=[[0,0.5],[1,0.5]];portConstraint=eastwest;rotatable=0;whiteSpace=wrap;html=1;" parent="110" vertex="1">
                    <mxGeometry y="30" width="120" height="30" as="geometry"/>
                </mxCell>
                <mxCell id="112" value="&lt;span style=&quot;color: rgb(63, 63, 63); font-family: &amp;quot;Times New Roman&amp;quot;;&quot;&gt;A400787&lt;/span&gt;" style="text;strokeColor=none;fillColor=none;align=left;verticalAlign=middle;spacingLeft=4;spacingRight=4;overflow=hidden;points=[[0,0.5],[1,0.5]];portConstraint=eastwest;rotatable=0;whiteSpace=wrap;html=1;" parent="110" vertex="1">
                    <mxGeometry y="60" width="120" height="30" as="geometry"/>
                </mxCell>
                <mxCell id="114" value="&lt;font face=&quot;Times New Roman&quot;&gt;Parcel ID&lt;/font&gt;" style="swimlane;fontStyle=0;childLayout=stackLayout;horizontal=1;startSize=30;horizontalStack=0;resizeParent=1;resizeParentMax=0;resizeLast=0;collapsible=1;marginBottom=0;whiteSpace=wrap;html=1;" parent="1" vertex="1">
                    <mxGeometry x="2760" y="1320" width="120" height="90" as="geometry"/>
                </mxCell>
                <mxCell id="115" value="&lt;font face=&quot;Times New Roman&quot;&gt;1&lt;/font&gt;" style="text;strokeColor=none;fillColor=none;align=left;verticalAlign=middle;spacingLeft=4;spacingRight=4;overflow=hidden;points=[[0,0.5],[1,0.5]];portConstraint=eastwest;rotatable=0;whiteSpace=wrap;html=1;" parent="114" vertex="1">
                    <mxGeometry y="30" width="120" height="30" as="geometry"/>
                </mxCell>
                <mxCell id="116" value="&lt;font face=&quot;Times New Roman&quot;&gt;2&lt;/font&gt;" style="text;strokeColor=none;fillColor=none;align=left;verticalAlign=middle;spacingLeft=4;spacingRight=4;overflow=hidden;points=[[0,0.5],[1,0.5]];portConstraint=eastwest;rotatable=0;whiteSpace=wrap;html=1;" parent="114" vertex="1">
                    <mxGeometry y="60" width="120" height="30" as="geometry"/>
                </mxCell>
                <mxCell id="118" value="&lt;font face=&quot;Times New Roman&quot;&gt;Zoning ID&lt;/font&gt;" style="swimlane;fontStyle=0;childLayout=stackLayout;horizontal=1;startSize=30;horizontalStack=0;resizeParent=1;resizeParentMax=0;resizeLast=0;collapsible=1;marginBottom=0;whiteSpace=wrap;html=1;" parent="1" vertex="1">
                    <mxGeometry x="2880" y="1320" width="120" height="90" as="geometry"/>
                </mxCell>
                <mxCell id="119" value="&lt;font face=&quot;Times New Roman&quot;&gt;A&lt;/font&gt;" style="text;strokeColor=none;fillColor=none;align=left;verticalAlign=middle;spacingLeft=4;spacingRight=4;overflow=hidden;points=[[0,0.5],[1,0.5]];portConstraint=eastwest;rotatable=0;whiteSpace=wrap;html=1;" parent="118" vertex="1">
                    <mxGeometry y="30" width="120" height="30" as="geometry"/>
                </mxCell>
                <mxCell id="120" value="&lt;font face=&quot;Times New Roman&quot;&gt;B&lt;/font&gt;" style="text;strokeColor=none;fillColor=none;align=left;verticalAlign=middle;spacingLeft=4;spacingRight=4;overflow=hidden;points=[[0,0.5],[1,0.5]];portConstraint=eastwest;rotatable=0;whiteSpace=wrap;html=1;" parent="118" vertex="1">
                    <mxGeometry y="60" width="120" height="30" as="geometry"/>
                </mxCell>
                <mxCell id="122" value="&lt;font face=&quot;Times New Roman&quot;&gt;Allowed&lt;/font&gt;" style="swimlane;fontStyle=0;childLayout=stackLayout;horizontal=1;startSize=30;horizontalStack=0;resizeParent=1;resizeParentMax=0;resizeLast=0;collapsible=1;marginBottom=0;whiteSpace=wrap;html=1;" parent="1" vertex="1">
                    <mxGeometry x="3000" y="1320" width="120" height="90" as="geometry"/>
                </mxCell>
                <mxCell id="123" value="&lt;font face=&quot;Times New Roman&quot;&gt;Maybe&lt;/font&gt;" style="text;strokeColor=none;fillColor=none;align=left;verticalAlign=middle;spacingLeft=4;spacingRight=4;overflow=hidden;points=[[0,0.5],[1,0.5]];portConstraint=eastwest;rotatable=0;whiteSpace=wrap;html=1;" parent="122" vertex="1">
                    <mxGeometry y="30" width="120" height="30" as="geometry"/>
                </mxCell>
                <mxCell id="124" value="&lt;font face=&quot;Times New Roman&quot;&gt;No&lt;/font&gt;" style="text;strokeColor=none;fillColor=none;align=left;verticalAlign=middle;spacingLeft=4;spacingRight=4;overflow=hidden;points=[[0,0.5],[1,0.5]];portConstraint=eastwest;rotatable=0;whiteSpace=wrap;html=1;" parent="122" vertex="1">
                    <mxGeometry y="60" width="120" height="30" as="geometry"/>
                </mxCell>
                <mxCell id="126" value="&lt;font face=&quot;Times New Roman&quot;&gt;Note&lt;/font&gt;" style="swimlane;fontStyle=0;childLayout=stackLayout;horizontal=1;startSize=30;horizontalStack=0;resizeParent=1;resizeParentMax=0;resizeLast=0;collapsible=1;marginBottom=0;whiteSpace=wrap;html=1;" parent="1" vertex="1">
                    <mxGeometry x="3120" y="1320" width="270" height="90" as="geometry"/>
                </mxCell>
                <mxCell id="127" value="&lt;span style=&quot;color: rgb(63, 63, 63); font-family: &amp;quot;Times New Roman&amp;quot;;&quot;&gt;Meeting the&amp;nbsp;&lt;/span&gt;&lt;font style=&quot;font-family: &amp;quot;Times New Roman&amp;quot;; color: rgb(255, 0, 0);&quot;&gt;zoning_X_constraints&amp;nbsp;&lt;/font&gt;&lt;font style=&quot;font-family: &amp;quot;Times New Roman&amp;quot;; color: rgb(0, 0, 0);&quot;&gt;or Maybe&lt;/font&gt;" style="text;strokeColor=none;fillColor=none;align=left;verticalAlign=middle;spacingLeft=4;spacingRight=4;overflow=hidden;points=[[0,0.5],[1,0.5]];portConstraint=eastwest;rotatable=0;whiteSpace=wrap;html=1;" parent="126" vertex="1">
                    <mxGeometry y="30" width="270" height="30" as="geometry"/>
                </mxCell>
                <mxCell id="128" value="&lt;font face=&quot;Times New Roman&quot;&gt;&lt;span style=&quot;color: rgb(0, 0, 0); text-align: center;&quot;&gt;Our building is not allowed be built in this parcel because not meet the &lt;/span&gt;&lt;span style=&quot;text-align: center; color: rgb(0, 0, 0);&quot;&gt;&lt;font style=&quot;color: rgb(255, 0, 0);&quot;&gt;zoning X constraints&lt;/font&gt;&lt;/span&gt;&lt;/font&gt;" style="text;strokeColor=none;fillColor=none;align=left;verticalAlign=middle;spacingLeft=4;spacingRight=4;overflow=hidden;points=[[0,0.5],[1,0.5]];portConstraint=eastwest;rotatable=0;whiteSpace=wrap;html=1;" parent="126" vertex="1">
                    <mxGeometry y="60" width="270" height="30" as="geometry"/>
                </mxCell>
                <mxCell id="200" value="&lt;span style=&quot;color: rgb(63, 63, 63); font-family: &amp;quot;Times New Roman&amp;quot;;&quot;&gt;C671829&lt;/span&gt;" style="text;strokeColor=none;fillColor=none;align=left;verticalAlign=middle;spacingLeft=4;spacingRight=4;overflow=hidden;points=[[0,0.5],[1,0.5]];portConstraint=eastwest;rotatable=0;whiteSpace=wrap;html=1;" parent="1" vertex="1">
                    <mxGeometry x="2640" y="1490" width="120" height="30" as="geometry"/>
                </mxCell>
                <mxCell id="201" value="&lt;font face=&quot;Times New Roman&quot;&gt;6&lt;/font&gt;" style="text;strokeColor=none;fillColor=none;align=left;verticalAlign=middle;spacingLeft=4;spacingRight=4;overflow=hidden;points=[[0,0.5],[1,0.5]];portConstraint=eastwest;rotatable=0;whiteSpace=wrap;html=1;" parent="1" vertex="1">
                    <mxGeometry x="2760" y="1490" width="120" height="30" as="geometry"/>
                </mxCell>
                <mxCell id="202" value="&lt;font face=&quot;Times New Roman&quot;&gt;E&lt;/font&gt;" style="text;strokeColor=none;fillColor=none;align=left;verticalAlign=middle;spacingLeft=4;spacingRight=4;overflow=hidden;points=[[0,0.5],[1,0.5]];portConstraint=eastwest;rotatable=0;whiteSpace=wrap;html=1;" parent="1" vertex="1">
                    <mxGeometry x="2880" y="1490" width="120" height="30" as="geometry"/>
                </mxCell>
                <mxCell id="203" value="&lt;font face=&quot;Times New Roman&quot;&gt;Maybe&lt;/font&gt;" style="text;strokeColor=none;fillColor=none;align=left;verticalAlign=middle;spacingLeft=4;spacingRight=4;overflow=hidden;points=[[0,0.5],[1,0.5]];portConstraint=eastwest;rotatable=0;whiteSpace=wrap;html=1;" parent="1" vertex="1">
                    <mxGeometry x="3000" y="1490" width="120" height="30" as="geometry"/>
                </mxCell>
                <mxCell id="204" value="&lt;span style=&quot;color: rgb(63, 63, 63); font-family: &amp;quot;Times New Roman&amp;quot;;&quot;&gt;You need check the initial process, it must have one maybe in previous result at least&lt;/span&gt;" style="text;strokeColor=none;fillColor=none;align=left;verticalAlign=middle;spacingLeft=4;spacingRight=4;overflow=hidden;points=[[0,0.5],[1,0.5]];portConstraint=eastwest;rotatable=0;whiteSpace=wrap;html=1;" parent="1" vertex="1">
                    <mxGeometry x="3120" y="1490" width="270" height="30" as="geometry"/>
                </mxCell>
                <mxCell id="209" value="" style="sketch=0;verticalLabelPosition=bottom;sketch=0;aspect=fixed;html=1;verticalAlign=top;strokeColor=none;fillColor=#000000;align=center;outlineConnect=0;pointerEvents=1;shape=mxgraph.citrix2.home;shadow=1;" parent="1" vertex="1">
                    <mxGeometry x="385.41" y="891" width="69.18" height="59.41" as="geometry"/>
                </mxCell>
                <mxCell id="213" value="" style="group;shadow=1;" parent="1" vertex="1" connectable="0">
                    <mxGeometry x="-50" y="210" width="170" height="130" as="geometry"/>
                </mxCell>
                <mxCell id="3" value="&lt;font face=&quot;Times New Roman&quot; style=&quot;font-size: 20px; color: rgb(255, 51, 51);&quot;&gt;&lt;b style=&quot;&quot;&gt;Tidyparcel Feeds&lt;/b&gt;&lt;/font&gt;" style="rounded=1;whiteSpace=wrap;html=1;strokeColor=none;shadow=1;" parent="213" vertex="1">
                    <mxGeometry x="30" y="60" width="110" height="70" as="geometry"/>
                </mxCell>
                <mxCell id="212" value="" style="sketch=0;verticalLabelPosition=bottom;sketch=0;aspect=fixed;html=1;verticalAlign=top;strokeColor=none;fillColor=#000000;align=center;outlineConnect=0;pointerEvents=1;shape=mxgraph.citrix2.data_center;shadow=1;" parent="213" vertex="1">
                    <mxGeometry x="50.53" y="-10" width="68.94" height="70" as="geometry"/>
                </mxCell>
                <mxCell id="214" value="" style="group;shadow=1;" parent="1" vertex="1" connectable="0">
                    <mxGeometry x="-480" y="650" width="120" height="130" as="geometry"/>
                </mxCell>
                <mxCell id="283" value="" style="edgeStyle=none;html=1;" parent="214" source="21" target="211" edge="1">
                    <mxGeometry relative="1" as="geometry"/>
                </mxCell>
                <mxCell id="21" value="&lt;font face=&quot;Times New Roman&quot; style=&quot;font-size: 20px; color: rgb(255, 51, 51);&quot;&gt;&lt;b&gt;Tidyzoning&lt;/b&gt;&lt;/font&gt;&lt;div&gt;&lt;font face=&quot;Times New Roman&quot; style=&quot;font-size: 20px; color: rgb(255, 51, 51);&quot;&gt;&lt;b&gt;Feeds&lt;/b&gt;&lt;/font&gt;&lt;/div&gt;" style="rounded=1;whiteSpace=wrap;html=1;strokeColor=none;shadow=1;" parent="214" vertex="1">
                    <mxGeometry y="50" width="120" height="60" as="geometry"/>
                </mxCell>
                <mxCell id="211" value="" style="sketch=0;verticalLabelPosition=bottom;sketch=0;aspect=fixed;html=1;verticalAlign=top;strokeColor=none;fillColor=#000000;align=center;outlineConnect=0;pointerEvents=1;shape=mxgraph.citrix2.hybrid_cloud;shadow=1;" parent="214" vertex="1">
                    <mxGeometry x="26.099999999999994" y="10" width="67.8" height="38.09" as="geometry"/>
                </mxCell>
                <mxCell id="7" style="edgeStyle=none;html=1;strokeWidth=3;flowAnimation=0;entryX=0.018;entryY=0.313;entryDx=0;entryDy=0;entryPerimeter=0;shape=flexArrow;exitX=1;exitY=0.75;exitDx=0;exitDy=0;" parent="1" source="3" target="4" edge="1">
                    <mxGeometry relative="1" as="geometry"/>
                </mxCell>
                <mxCell id="9" style="edgeStyle=none;html=1;entryX=0;entryY=0.5;entryDx=0;entryDy=0;strokeWidth=3;flowAnimation=0;strokeColor=default;shadow=0;shape=flexArrow;exitX=1;exitY=0.25;exitDx=0;exitDy=0;" parent="1" source="3" target="8" edge="1">
                    <mxGeometry relative="1" as="geometry">
                        <mxPoint x="110" y="250" as="sourcePoint"/>
                    </mxGeometry>
                </mxCell>
                <mxCell id="217" style="edgeStyle=orthogonalEdgeStyle;html=1;entryX=0.698;entryY=-0.006;entryDx=0;entryDy=0;entryPerimeter=0;strokeWidth=3;endArrow=doubleBlock;endFill=1;" parent="1" source="11" target="12" edge="1">
                    <mxGeometry relative="1" as="geometry">
                        <Array as="points">
                            <mxPoint x="815" y="350"/>
                            <mxPoint x="733" y="350"/>
                        </Array>
                    </mxGeometry>
                </mxCell>
                <mxCell id="218" style="edgeStyle=none;html=1;entryX=0.367;entryY=-0.051;entryDx=0;entryDy=0;entryPerimeter=0;strokeWidth=3;flowAnimation=1;" parent="1" source="35" target="44" edge="1">
                    <mxGeometry relative="1" as="geometry">
                        <mxPoint x="1131.8999999999996" y="1461.25" as="targetPoint"/>
                    </mxGeometry>
                </mxCell>
                <mxCell id="225" value="" style="sketch=0;verticalLabelPosition=bottom;sketch=0;aspect=fixed;html=1;verticalAlign=top;strokeColor=none;fillColor=#000000;align=center;outlineConnect=0;pointerEvents=1;shape=mxgraph.citrix2.citrix_federated_authentication_service2;" parent="1" vertex="1">
                    <mxGeometry x="1150" y="1432.92" width="56.61" height="34.08" as="geometry"/>
                </mxCell>
                <mxCell id="230" value="" style="sketch=0;verticalLabelPosition=bottom;sketch=0;aspect=fixed;html=1;verticalAlign=top;strokeColor=none;fillColor=#000000;align=center;outlineConnect=0;pointerEvents=1;shape=mxgraph.citrix2.citrix_license_server;" parent="1" vertex="1">
                    <mxGeometry x="570" y="1340" width="55.8" height="40" as="geometry"/>
                </mxCell>
                <mxCell id="234" value="" style="group" parent="1" vertex="1" connectable="0">
                    <mxGeometry x="1620" y="1000" width="750" height="179.56999999999994" as="geometry"/>
                </mxCell>
                <mxCell id="177" value="" style="group;shadow=0;rounded=0;" parent="234" vertex="1" connectable="0">
                    <mxGeometry y="59.569999999999936" width="750" height="120" as="geometry"/>
                </mxCell>
                <mxCell id="178" value="&lt;font face=&quot;Times New Roman&quot;&gt;Prop ID&lt;/font&gt;" style="swimlane;fontStyle=0;childLayout=stackLayout;horizontal=1;startSize=30;horizontalStack=0;resizeParent=1;resizeParentMax=0;resizeLast=0;collapsible=1;marginBottom=0;whiteSpace=wrap;html=1;" parent="177" vertex="1">
                    <mxGeometry width="120" height="60" as="geometry"/>
                </mxCell>
                <mxCell id="179" value="&lt;font face=&quot;Times New Roman&quot;&gt;C899770&lt;/font&gt;" style="text;strokeColor=none;fillColor=none;align=left;verticalAlign=middle;spacingLeft=4;spacingRight=4;overflow=hidden;points=[[0,0.5],[1,0.5]];portConstraint=eastwest;rotatable=0;whiteSpace=wrap;html=1;" parent="178" vertex="1">
                    <mxGeometry y="30" width="120" height="30" as="geometry"/>
                </mxCell>
                <mxCell id="182" value="&lt;font face=&quot;Times New Roman&quot;&gt;Parcel ID&lt;/font&gt;" style="swimlane;fontStyle=0;childLayout=stackLayout;horizontal=1;startSize=30;horizontalStack=0;resizeParent=1;resizeParentMax=0;resizeLast=0;collapsible=1;marginBottom=0;whiteSpace=wrap;html=1;" parent="177" vertex="1">
                    <mxGeometry x="120" width="120" height="60" as="geometry"/>
                </mxCell>
                <mxCell id="183" value="&lt;font face=&quot;Times New Roman&quot;&gt;3&lt;/font&gt;" style="text;strokeColor=none;fillColor=none;align=left;verticalAlign=middle;spacingLeft=4;spacingRight=4;overflow=hidden;points=[[0,0.5],[1,0.5]];portConstraint=eastwest;rotatable=0;whiteSpace=wrap;html=1;" parent="182" vertex="1">
                    <mxGeometry y="30" width="120" height="30" as="geometry"/>
                </mxCell>
                <mxCell id="186" value="&lt;font face=&quot;Times New Roman&quot;&gt;Zoning ID&lt;/font&gt;" style="swimlane;fontStyle=0;childLayout=stackLayout;horizontal=1;startSize=30;horizontalStack=0;resizeParent=1;resizeParentMax=0;resizeLast=0;collapsible=1;marginBottom=0;whiteSpace=wrap;html=1;" parent="177" vertex="1">
                    <mxGeometry x="240" width="120" height="60" as="geometry"/>
                </mxCell>
                <mxCell id="187" value="&lt;font face=&quot;Times New Roman&quot;&gt;A&lt;/font&gt;" style="text;strokeColor=none;fillColor=none;align=left;verticalAlign=middle;spacingLeft=4;spacingRight=4;overflow=hidden;points=[[0,0.5],[1,0.5]];portConstraint=eastwest;rotatable=0;whiteSpace=wrap;html=1;" parent="186" vertex="1">
                    <mxGeometry y="30" width="120" height="30" as="geometry"/>
                </mxCell>
                <mxCell id="190" value="&lt;font face=&quot;Times New Roman&quot;&gt;Allowed&lt;/font&gt;" style="swimlane;fontStyle=0;childLayout=stackLayout;horizontal=1;startSize=30;horizontalStack=0;resizeParent=1;resizeParentMax=0;resizeLast=0;collapsible=1;marginBottom=0;whiteSpace=wrap;html=1;" parent="177" vertex="1">
                    <mxGeometry x="360" width="120" height="60" as="geometry"/>
                </mxCell>
                <mxCell id="191" value="&lt;font face=&quot;Times New Roman&quot;&gt;False&lt;/font&gt;" style="text;strokeColor=none;fillColor=none;align=left;verticalAlign=middle;spacingLeft=4;spacingRight=4;overflow=hidden;points=[[0,0.5],[1,0.5]];portConstraint=eastwest;rotatable=0;whiteSpace=wrap;html=1;" parent="190" vertex="1">
                    <mxGeometry y="30" width="120" height="30" as="geometry"/>
                </mxCell>
                <mxCell id="194" value="&lt;font face=&quot;Times New Roman&quot;&gt;Note&lt;/font&gt;" style="swimlane;fontStyle=0;childLayout=stackLayout;horizontal=1;startSize=30;horizontalStack=0;resizeParent=1;resizeParentMax=0;resizeLast=0;collapsible=1;marginBottom=0;whiteSpace=wrap;html=1;" parent="177" vertex="1">
                    <mxGeometry x="480" width="270" height="60" as="geometry"/>
                </mxCell>
                <mxCell id="195" value="&lt;span style=&quot;font-family: &amp;quot;Times New Roman&amp;quot;; text-align: center; color: rgb(0, 0, 0);&quot;&gt;Our building is not allowed be built in this parcel because not meet the&amp;nbsp;&lt;/span&gt;&lt;span style=&quot;font-family: &amp;quot;Times New Roman&amp;quot;; text-align: center;&quot;&gt;&lt;font style=&quot;color: rgb(255, 51, 51);&quot;&gt;zoning A constraints&lt;/font&gt;&lt;/span&gt;" style="text;strokeColor=none;fillColor=none;align=left;verticalAlign=middle;spacingLeft=4;spacingRight=4;overflow=hidden;points=[[0,0.5],[1,0.5]];portConstraint=eastwest;rotatable=0;whiteSpace=wrap;html=1;" parent="194" vertex="1">
                    <mxGeometry y="30" width="270" height="30" as="geometry"/>
                </mxCell>
                <mxCell id="232" value="&lt;font face=&quot;Times New Roman&quot;&gt;&lt;span style=&quot;font-size: 18px;&quot;&gt;Table 2. Confidential parcel Intial&amp;nbsp;&lt;/span&gt;&lt;/font&gt;&lt;span style=&quot;color: rgb(63, 63, 63); font-family: &amp;quot;Times New Roman&amp;quot;; font-size: 18px;&quot;&gt;constraints&#39;&amp;nbsp;&lt;/span&gt;&lt;font face=&quot;Times New Roman&quot;&gt;&lt;span style=&quot;font-size: 18px;&quot;&gt;check&lt;/span&gt;&lt;/font&gt;&lt;div&gt;&lt;font face=&quot;Times New Roman&quot;&gt;&lt;span style=&quot;font-size: 18px;&quot;&gt;(Don&#39;t need later footprint check process any more)&lt;/span&gt;&lt;/font&gt;&lt;/div&gt;" style="text;html=1;align=left;verticalAlign=middle;whiteSpace=wrap;rounded=0;" parent="234" vertex="1">
                    <mxGeometry x="60" y="14.569999999999936" width="540" height="30" as="geometry"/>
                </mxCell>
                <mxCell id="233" value="" style="sketch=0;verticalLabelPosition=bottom;sketch=0;aspect=fixed;html=1;verticalAlign=top;strokeColor=none;fillColor=#000000;align=center;outlineConnect=0;pointerEvents=1;shape=mxgraph.citrix2.citrix_policies;" parent="234" vertex="1">
                    <mxGeometry width="50" height="49.575" as="geometry"/>
                </mxCell>
                <mxCell id="242" value="" style="group" parent="1" vertex="1" connectable="0">
                    <mxGeometry x="1620" y="1890" width="750" height="180" as="geometry"/>
                </mxCell>
                <mxCell id="87" value="" style="group" parent="242" vertex="1" connectable="0">
                    <mxGeometry y="60" width="750" height="120" as="geometry"/>
                </mxCell>
                <mxCell id="88" value="&lt;font face=&quot;Times New Roman&quot;&gt;Prop ID&lt;/font&gt;" style="swimlane;fontStyle=0;childLayout=stackLayout;horizontal=1;startSize=30;horizontalStack=0;resizeParent=1;resizeParentMax=0;resizeLast=0;collapsible=1;marginBottom=0;whiteSpace=wrap;html=1;" parent="87" vertex="1">
                    <mxGeometry width="120" height="120" as="geometry"/>
                </mxCell>
                <mxCell id="89" value="&lt;font face=&quot;Times New Roman&quot;&gt;K787876&lt;/font&gt;" style="text;strokeColor=none;fillColor=none;align=left;verticalAlign=middle;spacingLeft=4;spacingRight=4;overflow=hidden;points=[[0,0.5],[1,0.5]];portConstraint=eastwest;rotatable=0;whiteSpace=wrap;html=1;" parent="88" vertex="1">
                    <mxGeometry y="30" width="120" height="30" as="geometry"/>
                </mxCell>
                <mxCell id="90" value="&lt;font face=&quot;Times New Roman&quot;&gt;H879965&lt;/font&gt;" style="text;strokeColor=none;fillColor=none;align=left;verticalAlign=middle;spacingLeft=4;spacingRight=4;overflow=hidden;points=[[0,0.5],[1,0.5]];portConstraint=eastwest;rotatable=0;whiteSpace=wrap;html=1;" parent="88" vertex="1">
                    <mxGeometry y="60" width="120" height="30" as="geometry"/>
                </mxCell>
                <mxCell id="91" value="&lt;font face=&quot;Times New Roman&quot;&gt;C671829&lt;/font&gt;" style="text;strokeColor=none;fillColor=none;align=left;verticalAlign=middle;spacingLeft=4;spacingRight=4;overflow=hidden;points=[[0,0.5],[1,0.5]];portConstraint=eastwest;rotatable=0;whiteSpace=wrap;html=1;" parent="88" vertex="1">
                    <mxGeometry y="90" width="120" height="30" as="geometry"/>
                </mxCell>
                <mxCell id="92" value="&lt;font face=&quot;Times New Roman&quot;&gt;Parcel ID&lt;/font&gt;" style="swimlane;fontStyle=0;childLayout=stackLayout;horizontal=1;startSize=30;horizontalStack=0;resizeParent=1;resizeParentMax=0;resizeLast=0;collapsible=1;marginBottom=0;whiteSpace=wrap;html=1;" parent="87" vertex="1">
                    <mxGeometry x="120" width="120" height="120" as="geometry"/>
                </mxCell>
                <mxCell id="93" value="&lt;font face=&quot;Times New Roman&quot;&gt;4&lt;/font&gt;" style="text;strokeColor=none;fillColor=none;align=left;verticalAlign=middle;spacingLeft=4;spacingRight=4;overflow=hidden;points=[[0,0.5],[1,0.5]];portConstraint=eastwest;rotatable=0;whiteSpace=wrap;html=1;" parent="92" vertex="1">
                    <mxGeometry y="30" width="120" height="30" as="geometry"/>
                </mxCell>
                <mxCell id="94" value="&lt;font face=&quot;Times New Roman&quot;&gt;5&lt;/font&gt;" style="text;strokeColor=none;fillColor=none;align=left;verticalAlign=middle;spacingLeft=4;spacingRight=4;overflow=hidden;points=[[0,0.5],[1,0.5]];portConstraint=eastwest;rotatable=0;whiteSpace=wrap;html=1;" parent="92" vertex="1">
                    <mxGeometry y="60" width="120" height="30" as="geometry"/>
                </mxCell>
                <mxCell id="95" value="&lt;font face=&quot;Times New Roman&quot;&gt;6&lt;/font&gt;" style="text;strokeColor=none;fillColor=none;align=left;verticalAlign=middle;spacingLeft=4;spacingRight=4;overflow=hidden;points=[[0,0.5],[1,0.5]];portConstraint=eastwest;rotatable=0;whiteSpace=wrap;html=1;" parent="92" vertex="1">
                    <mxGeometry y="90" width="120" height="30" as="geometry"/>
                </mxCell>
                <mxCell id="96" value="&lt;font face=&quot;Times New Roman&quot;&gt;Zoning ID&lt;/font&gt;" style="swimlane;fontStyle=0;childLayout=stackLayout;horizontal=1;startSize=30;horizontalStack=0;resizeParent=1;resizeParentMax=0;resizeLast=0;collapsible=1;marginBottom=0;whiteSpace=wrap;html=1;" parent="87" vertex="1">
                    <mxGeometry x="240" width="120" height="120" as="geometry"/>
                </mxCell>
                <mxCell id="97" value="&lt;font face=&quot;Times New Roman&quot;&gt;A&lt;/font&gt;" style="text;strokeColor=none;fillColor=none;align=left;verticalAlign=middle;spacingLeft=4;spacingRight=4;overflow=hidden;points=[[0,0.5],[1,0.5]];portConstraint=eastwest;rotatable=0;whiteSpace=wrap;html=1;" parent="96" vertex="1">
                    <mxGeometry y="30" width="120" height="30" as="geometry"/>
                </mxCell>
                <mxCell id="98" value="&lt;font face=&quot;Times New Roman&quot;&gt;E&lt;/font&gt;" style="text;strokeColor=none;fillColor=none;align=left;verticalAlign=middle;spacingLeft=4;spacingRight=4;overflow=hidden;points=[[0,0.5],[1,0.5]];portConstraint=eastwest;rotatable=0;whiteSpace=wrap;html=1;" parent="96" vertex="1">
                    <mxGeometry y="60" width="120" height="30" as="geometry"/>
                </mxCell>
                <mxCell id="99" value="&lt;font face=&quot;Times New Roman&quot;&gt;E&lt;/font&gt;" style="text;strokeColor=none;fillColor=none;align=left;verticalAlign=middle;spacingLeft=4;spacingRight=4;overflow=hidden;points=[[0,0.5],[1,0.5]];portConstraint=eastwest;rotatable=0;whiteSpace=wrap;html=1;" parent="96" vertex="1">
                    <mxGeometry y="90" width="120" height="30" as="geometry"/>
                </mxCell>
                <mxCell id="100" value="&lt;font face=&quot;Times New Roman&quot;&gt;Allowed&lt;/font&gt;" style="swimlane;fontStyle=0;childLayout=stackLayout;horizontal=1;startSize=30;horizontalStack=0;resizeParent=1;resizeParentMax=0;resizeLast=0;collapsible=1;marginBottom=0;whiteSpace=wrap;html=1;" parent="87" vertex="1">
                    <mxGeometry x="360" width="120" height="120" as="geometry"/>
                </mxCell>
                <mxCell id="101" value="&lt;span style=&quot;color: rgb(0, 0, 0);&quot;&gt;&lt;font face=&quot;Times New Roman&quot;&gt;No&lt;/font&gt;&lt;/span&gt;" style="text;strokeColor=none;fillColor=none;align=left;verticalAlign=middle;spacingLeft=4;spacingRight=4;overflow=hidden;points=[[0,0.5],[1,0.5]];portConstraint=eastwest;rotatable=0;whiteSpace=wrap;html=1;" parent="100" vertex="1">
                    <mxGeometry y="30" width="120" height="30" as="geometry"/>
                </mxCell>
                <mxCell id="102" value="&lt;font face=&quot;Times New Roman&quot;&gt;Yes&lt;/font&gt;" style="text;strokeColor=none;fillColor=none;align=left;verticalAlign=middle;spacingLeft=4;spacingRight=4;overflow=hidden;points=[[0,0.5],[1,0.5]];portConstraint=eastwest;rotatable=0;whiteSpace=wrap;html=1;" parent="100" vertex="1">
                    <mxGeometry y="60" width="120" height="30" as="geometry"/>
                </mxCell>
                <mxCell id="103" value="&lt;font face=&quot;Times New Roman&quot;&gt;Maybe&lt;/font&gt;" style="text;strokeColor=none;fillColor=none;align=left;verticalAlign=middle;spacingLeft=4;spacingRight=4;overflow=hidden;points=[[0,0.5],[1,0.5]];portConstraint=eastwest;rotatable=0;whiteSpace=wrap;html=1;" parent="100" vertex="1">
                    <mxGeometry y="90" width="120" height="30" as="geometry"/>
                </mxCell>
                <mxCell id="104" value="&lt;font face=&quot;Times New Roman&quot;&gt;Note&lt;/font&gt;" style="swimlane;fontStyle=0;childLayout=stackLayout;horizontal=1;startSize=30;horizontalStack=0;resizeParent=1;resizeParentMax=0;resizeLast=0;collapsible=1;marginBottom=0;whiteSpace=wrap;html=1;" parent="87" vertex="1">
                    <mxGeometry x="480" width="270" height="120" as="geometry"/>
                </mxCell>
                <mxCell id="105" value="&lt;span style=&quot;color: rgb(0, 0, 0); text-align: center;&quot;&gt;&lt;font face=&quot;Times New Roman&quot;&gt;Our building footprint is not fited into buildable area in this parcel.&lt;/font&gt;&lt;/span&gt;" style="text;strokeColor=none;fillColor=none;align=left;verticalAlign=middle;spacingLeft=4;spacingRight=4;overflow=hidden;points=[[0,0.5],[1,0.5]];portConstraint=eastwest;rotatable=0;whiteSpace=wrap;html=1;" parent="104" vertex="1">
                    <mxGeometry y="30" width="270" height="30" as="geometry"/>
                </mxCell>
                <mxCell id="106" value="&lt;div style=&quot;text-align: center;&quot;&gt;&lt;span style=&quot;background-color: transparent;&quot;&gt;&lt;font face=&quot;Times New Roman&quot;&gt;Success&lt;/font&gt;&lt;/span&gt;&lt;/div&gt;" style="text;strokeColor=none;fillColor=none;align=left;verticalAlign=middle;spacingLeft=4;spacingRight=4;overflow=hidden;points=[[0,0.5],[1,0.5]];portConstraint=eastwest;rotatable=0;whiteSpace=wrap;html=1;" parent="104" vertex="1">
                    <mxGeometry y="60" width="270" height="30" as="geometry"/>
                </mxCell>
                <mxCell id="107" value="&lt;font face=&quot;Times New Roman&quot;&gt;You need check the initial process, it must have one maybe in previous result at least&lt;/font&gt;" style="text;strokeColor=none;fillColor=none;align=left;verticalAlign=middle;spacingLeft=4;spacingRight=4;overflow=hidden;points=[[0,0.5],[1,0.5]];portConstraint=eastwest;rotatable=0;whiteSpace=wrap;html=1;" parent="104" vertex="1">
                    <mxGeometry y="90" width="270" height="30" as="geometry"/>
                </mxCell>
                <mxCell id="240" value="" style="sketch=0;verticalLabelPosition=bottom;sketch=0;aspect=fixed;html=1;verticalAlign=top;strokeColor=none;fillColor=#000000;align=center;outlineConnect=0;pointerEvents=1;shape=mxgraph.citrix2.citrix_policies;" parent="242" vertex="1">
                    <mxGeometry width="50" height="49.575" as="geometry"/>
                </mxCell>
                <mxCell id="241" value="&lt;span style=&quot;color: rgb(63, 63, 63); font-family: &amp;quot;Times New Roman&amp;quot;; font-size: 18px; font-style: normal; font-variant-ligatures: normal; font-variant-caps: normal; font-weight: 400; letter-spacing: normal; orphans: 2; text-align: left; text-indent: 0px; text-transform: none; widows: 2; word-spacing: 0px; -webkit-text-stroke-width: 0px; white-space: normal; background-color: rgb(251, 251, 251); text-decoration-thickness: initial; text-decoration-style: initial; text-decoration-color: initial; float: none; display: inline !important;&quot;&gt;Table 3. Confidential parcel footptint check&lt;/span&gt;" style="text;whiteSpace=wrap;html=1;" parent="242" vertex="1">
                    <mxGeometry x="60" y="20" width="510" height="50" as="geometry"/>
                </mxCell>
                <mxCell id="246" value="&lt;font face=&quot;Times New Roman&quot;&gt;Prop ID&lt;/font&gt;" style="swimlane;fontStyle=0;childLayout=stackLayout;horizontal=1;startSize=30;horizontalStack=0;resizeParent=1;resizeParentMax=0;resizeLast=0;collapsible=1;marginBottom=0;whiteSpace=wrap;html=1;" parent="1" vertex="1">
                    <mxGeometry x="1620" y="859.5699999999999" width="120" height="90" as="geometry"/>
                </mxCell>
                <mxCell id="247" value="&lt;font face=&quot;Times New Roman&quot;&gt;B100357&lt;/font&gt;" style="text;strokeColor=none;fillColor=none;align=left;verticalAlign=middle;spacingLeft=4;spacingRight=4;overflow=hidden;points=[[0,0.5],[1,0.5]];portConstraint=eastwest;rotatable=0;whiteSpace=wrap;html=1;" parent="246" vertex="1">
                    <mxGeometry y="30" width="120" height="30" as="geometry"/>
                </mxCell>
                <mxCell id="248" value="&lt;span style=&quot;color: rgb(63, 63, 63); font-family: &amp;quot;Times New Roman&amp;quot;;&quot;&gt;A400787&lt;/span&gt;" style="text;strokeColor=none;fillColor=none;align=left;verticalAlign=middle;spacingLeft=4;spacingRight=4;overflow=hidden;points=[[0,0.5],[1,0.5]];portConstraint=eastwest;rotatable=0;whiteSpace=wrap;html=1;" parent="246" vertex="1">
                    <mxGeometry y="60" width="120" height="30" as="geometry"/>
                </mxCell>
                <mxCell id="249" value="&lt;font face=&quot;Times New Roman&quot;&gt;Parcel ID&lt;/font&gt;" style="swimlane;fontStyle=0;childLayout=stackLayout;horizontal=1;startSize=30;horizontalStack=0;resizeParent=1;resizeParentMax=0;resizeLast=0;collapsible=1;marginBottom=0;whiteSpace=wrap;html=1;" parent="1" vertex="1">
                    <mxGeometry x="1740" y="859.5699999999999" width="120" height="90" as="geometry"/>
                </mxCell>
                <mxCell id="250" value="&lt;font face=&quot;Times New Roman&quot;&gt;1&lt;/font&gt;" style="text;strokeColor=none;fillColor=none;align=left;verticalAlign=middle;spacingLeft=4;spacingRight=4;overflow=hidden;points=[[0,0.5],[1,0.5]];portConstraint=eastwest;rotatable=0;whiteSpace=wrap;html=1;" parent="249" vertex="1">
                    <mxGeometry y="30" width="120" height="30" as="geometry"/>
                </mxCell>
                <mxCell id="251" value="&lt;font face=&quot;Times New Roman&quot;&gt;2&lt;/font&gt;" style="text;strokeColor=none;fillColor=none;align=left;verticalAlign=middle;spacingLeft=4;spacingRight=4;overflow=hidden;points=[[0,0.5],[1,0.5]];portConstraint=eastwest;rotatable=0;whiteSpace=wrap;html=1;" parent="249" vertex="1">
                    <mxGeometry y="60" width="120" height="30" as="geometry"/>
                </mxCell>
                <mxCell id="252" value="&lt;font face=&quot;Times New Roman&quot;&gt;Zoning ID&lt;/font&gt;" style="swimlane;fontStyle=0;childLayout=stackLayout;horizontal=1;startSize=30;horizontalStack=0;resizeParent=1;resizeParentMax=0;resizeLast=0;collapsible=1;marginBottom=0;whiteSpace=wrap;html=1;" parent="1" vertex="1">
                    <mxGeometry x="1860" y="859.5699999999999" width="120" height="90" as="geometry"/>
                </mxCell>
                <mxCell id="253" value="&lt;font face=&quot;Times New Roman&quot;&gt;A&lt;/font&gt;" style="text;strokeColor=none;fillColor=none;align=left;verticalAlign=middle;spacingLeft=4;spacingRight=4;overflow=hidden;points=[[0,0.5],[1,0.5]];portConstraint=eastwest;rotatable=0;whiteSpace=wrap;html=1;" parent="252" vertex="1">
                    <mxGeometry y="30" width="120" height="30" as="geometry"/>
                </mxCell>
                <mxCell id="254" value="&lt;font face=&quot;Times New Roman&quot;&gt;B&lt;/font&gt;" style="text;strokeColor=none;fillColor=none;align=left;verticalAlign=middle;spacingLeft=4;spacingRight=4;overflow=hidden;points=[[0,0.5],[1,0.5]];portConstraint=eastwest;rotatable=0;whiteSpace=wrap;html=1;" parent="252" vertex="1">
                    <mxGeometry y="60" width="120" height="30" as="geometry"/>
                </mxCell>
                <mxCell id="255" value="&lt;font face=&quot;Times New Roman&quot;&gt;Allowed&lt;/font&gt;" style="swimlane;fontStyle=0;childLayout=stackLayout;horizontal=1;startSize=30;horizontalStack=0;resizeParent=1;resizeParentMax=0;resizeLast=0;collapsible=1;marginBottom=0;whiteSpace=wrap;html=1;" parent="1" vertex="1">
                    <mxGeometry x="1980" y="859.5699999999999" width="120" height="90" as="geometry"/>
                </mxCell>
                <mxCell id="256" value="&lt;font face=&quot;Times New Roman&quot;&gt;Maybe&lt;/font&gt;" style="text;strokeColor=none;fillColor=none;align=left;verticalAlign=middle;spacingLeft=4;spacingRight=4;overflow=hidden;points=[[0,0.5],[1,0.5]];portConstraint=eastwest;rotatable=0;whiteSpace=wrap;html=1;" parent="255" vertex="1">
                    <mxGeometry y="30" width="120" height="30" as="geometry"/>
                </mxCell>
                <mxCell id="257" value="&lt;font face=&quot;Times New Roman&quot;&gt;No&lt;/font&gt;" style="text;strokeColor=none;fillColor=none;align=left;verticalAlign=middle;spacingLeft=4;spacingRight=4;overflow=hidden;points=[[0,0.5],[1,0.5]];portConstraint=eastwest;rotatable=0;whiteSpace=wrap;html=1;" parent="255" vertex="1">
                    <mxGeometry y="60" width="120" height="30" as="geometry"/>
                </mxCell>
                <mxCell id="258" value="&lt;font face=&quot;Times New Roman&quot;&gt;Note&lt;/font&gt;" style="swimlane;fontStyle=0;childLayout=stackLayout;horizontal=1;startSize=30;horizontalStack=0;resizeParent=1;resizeParentMax=0;resizeLast=0;collapsible=1;marginBottom=0;whiteSpace=wrap;html=1;" parent="1" vertex="1">
                    <mxGeometry x="2100" y="859.5699999999999" width="270" height="90" as="geometry"/>
                </mxCell>
                <mxCell id="259" value="&lt;font face=&quot;Times New Roman&quot;&gt;Meeting the &lt;font style=&quot;color: rgb(255, 0, 0);&quot;&gt;zoning_A_constraints &lt;/font&gt;&lt;font style=&quot;color: rgb(0, 0, 0);&quot;&gt;or Maybe&lt;/font&gt;&lt;/font&gt;" style="text;strokeColor=none;fillColor=none;align=left;verticalAlign=middle;spacingLeft=4;spacingRight=4;overflow=hidden;points=[[0,0.5],[1,0.5]];portConstraint=eastwest;rotatable=0;whiteSpace=wrap;html=1;" parent="258" vertex="1">
                    <mxGeometry y="30" width="270" height="30" as="geometry"/>
                </mxCell>
                <mxCell id="260" value="&lt;font face=&quot;Times New Roman&quot;&gt;&lt;span style=&quot;color: rgb(0, 0, 0); text-align: center;&quot;&gt;Our building is not allowed be built in this parcel because not meet the &lt;/span&gt;&lt;span style=&quot;text-align: center; color: rgb(0, 0, 0);&quot;&gt;&lt;font style=&quot;color: rgb(255, 0, 0);&quot;&gt;zoning B constraints&lt;/font&gt;&lt;/span&gt;&lt;/font&gt;" style="text;strokeColor=none;fillColor=none;align=left;verticalAlign=middle;spacingLeft=4;spacingRight=4;overflow=hidden;points=[[0,0.5],[1,0.5]];portConstraint=eastwest;rotatable=0;whiteSpace=wrap;html=1;" parent="258" vertex="1">
                    <mxGeometry y="60" width="270" height="30" as="geometry"/>
                </mxCell>
                <mxCell id="261" value="&lt;font face=&quot;Times New Roman&quot;&gt;&lt;span style=&quot;font-size: 18px;&quot;&gt;Table 1. Non-confidential parcel Intial&amp;nbsp;&lt;/span&gt;&lt;/font&gt;&lt;span style=&quot;color: rgb(63, 63, 63); font-family: &amp;quot;Times New Roman&amp;quot;; font-size: 18px;&quot;&gt;constraints&#39;&amp;nbsp;&lt;/span&gt;&lt;font face=&quot;Times New Roman&quot;&gt;&lt;span style=&quot;font-size: 18px;&quot;&gt;check&lt;/span&gt;&lt;/font&gt;&lt;div&gt;&lt;font face=&quot;Times New Roman&quot;&gt;&lt;span style=&quot;font-size: 18px;&quot;&gt;(Don&#39;t need later footprint check process any more)&lt;/span&gt;&lt;/font&gt;&lt;/div&gt;" style="text;html=1;align=left;verticalAlign=middle;whiteSpace=wrap;rounded=0;" parent="1" vertex="1">
                    <mxGeometry x="1680" y="814.5699999999999" width="540" height="30" as="geometry"/>
                </mxCell>
                <mxCell id="262" value="" style="sketch=0;verticalLabelPosition=bottom;sketch=0;aspect=fixed;html=1;verticalAlign=top;strokeColor=none;fillColor=#000000;align=center;outlineConnect=0;pointerEvents=1;shape=mxgraph.citrix2.citrix_policies;" parent="1" vertex="1">
                    <mxGeometry x="1620" y="800" width="50" height="49.575" as="geometry"/>
                </mxCell>
                <mxCell id="264" value="&lt;span style=&quot;color: rgb(63, 63, 63); font-family: &amp;quot;Times New Roman&amp;quot;;&quot;&gt;K787876&lt;/span&gt;" style="text;strokeColor=none;fillColor=none;align=left;verticalAlign=middle;spacingLeft=4;spacingRight=4;overflow=hidden;points=[[0,0.5],[1,0.5]];portConstraint=eastwest;rotatable=0;whiteSpace=wrap;html=1;" parent="1" vertex="1">
                    <mxGeometry x="2640" y="1440" width="120" height="30" as="geometry"/>
                </mxCell>
                <mxCell id="265" value="&lt;span style=&quot;color: rgb(63, 63, 63); font-family: &amp;quot;Times New Roman&amp;quot;;&quot;&gt;4&lt;/span&gt;" style="text;strokeColor=none;fillColor=none;align=left;verticalAlign=middle;spacingLeft=4;spacingRight=4;overflow=hidden;points=[[0,0.5],[1,0.5]];portConstraint=eastwest;rotatable=0;whiteSpace=wrap;html=1;" parent="1" vertex="1">
                    <mxGeometry x="2760" y="1440" width="120" height="30" as="geometry"/>
                </mxCell>
                <mxCell id="266" value="&lt;font face=&quot;Times New Roman&quot;&gt;A&lt;/font&gt;" style="text;strokeColor=none;fillColor=none;align=left;verticalAlign=middle;spacingLeft=4;spacingRight=4;overflow=hidden;points=[[0,0.5],[1,0.5]];portConstraint=eastwest;rotatable=0;whiteSpace=wrap;html=1;" parent="1" vertex="1">
                    <mxGeometry x="2880" y="1440" width="120" height="30" as="geometry"/>
                </mxCell>
                <mxCell id="267" value="&lt;font face=&quot;Times New Roman&quot; style=&quot;color: rgb(0, 0, 0);&quot;&gt;No&lt;/font&gt;" style="text;strokeColor=none;fillColor=none;align=left;verticalAlign=middle;spacingLeft=4;spacingRight=4;overflow=hidden;points=[[0,0.5],[1,0.5]];portConstraint=eastwest;rotatable=0;whiteSpace=wrap;html=1;" parent="1" vertex="1">
                    <mxGeometry x="3000" y="1440" width="120" height="30" as="geometry"/>
                </mxCell>
                <mxCell id="268" value="&lt;span style=&quot;color: rgb(63, 63, 63); font-family: &amp;quot;Times New Roman&amp;quot;; text-align: center;&quot;&gt;Our building footprint is not fited into buildable area in this parcel.&lt;/span&gt;" style="text;strokeColor=none;fillColor=none;align=left;verticalAlign=middle;spacingLeft=4;spacingRight=4;overflow=hidden;points=[[0,0.5],[1,0.5]];portConstraint=eastwest;rotatable=0;whiteSpace=wrap;html=1;" parent="1" vertex="1">
                    <mxGeometry x="3120" y="1440" width="270" height="30" as="geometry"/>
                </mxCell>
                <mxCell id="271" style="edgeStyle=orthogonalEdgeStyle;html=1;entryX=0;entryY=0.5;entryDx=0;entryDy=0;strokeWidth=3;endArrow=doubleBlock;endFill=1;" parent="1" source="259" target="111" edge="1">
                    <mxGeometry relative="1" as="geometry"/>
                </mxCell>
                <mxCell id="272" value="" style="sketch=0;verticalLabelPosition=bottom;sketch=0;aspect=fixed;html=1;verticalAlign=top;strokeColor=none;fillColor=#000000;align=center;outlineConnect=0;pointerEvents=1;shape=mxgraph.citrix2.citrix_license_server;" parent="1" vertex="1">
                    <mxGeometry x="2650" y="1270" width="63.95" height="45.84" as="geometry"/>
                </mxCell>
                <mxCell id="273" value="&lt;span style=&quot;color: rgb(63, 63, 63); font-family: &amp;quot;Times New Roman&amp;quot;; font-size: 18px; font-style: normal; font-variant-ligatures: normal; font-variant-caps: normal; font-weight: 400; letter-spacing: normal; orphans: 2; text-align: left; text-indent: 0px; text-transform: none; widows: 2; word-spacing: 0px; -webkit-text-stroke-width: 0px; white-space: normal; background-color: rgb(251, 251, 251); text-decoration-thickness: initial; text-decoration-style: initial; text-decoration-color: initial; float: none; display: inline !important;&quot;&gt;Sumarry Table. All Results&lt;/span&gt;" style="text;whiteSpace=wrap;html=1;" parent="1" vertex="1">
                    <mxGeometry x="2720" y="1280" width="350" height="50" as="geometry"/>
                </mxCell>
                <mxCell id="274" style="edgeStyle=orthogonalEdgeStyle;html=1;entryX=0;entryY=0.5;entryDx=0;entryDy=0;strokeWidth=3;flowAnimation=0;endArrow=diamond;endFill=1;dashed=1;" parent="1" source="195" target="133" edge="1">
                    <mxGeometry relative="1" as="geometry">
                        <Array as="points">
                            <mxPoint x="2270" y="1425"/>
                        </Array>
                    </mxGeometry>
                </mxCell>
                <mxCell id="277" style="edgeStyle=orthogonalEdgeStyle;html=1;entryX=-0.019;entryY=0.905;entryDx=0;entryDy=0;entryPerimeter=0;strokeWidth=3;flowAnimation=1;" parent="1" source="105" target="264" edge="1">
                    <mxGeometry relative="1" as="geometry"/>
                </mxCell>
                <mxCell id="278" value="&lt;b&gt;&lt;font face=&quot;Times New Roman&quot;&gt;Why we transfer &quot;MAYBE&quot; into footprint check as well?&lt;/font&gt;&lt;/b&gt;&lt;div&gt;&lt;font face=&quot;Times New Roman&quot;&gt;For those &quot;MAYBE&quot;, if footprint check return True, it will keep &quot;MAYBE&quot;, but updated in the note &quot;&lt;/font&gt;&lt;span style=&quot;color: rgb(63, 63, 63); font-family: &amp;quot;Times New Roman&amp;quot;; text-align: left; background-color: transparent;&quot;&gt;You need check the initial process, it must have one maybe in previous result at least&lt;/span&gt;&lt;span style=&quot;font-family: &amp;quot;Times New Roman&amp;quot;; background-color: transparent;&quot;&gt;&quot; .&lt;br&gt;If&amp;nbsp; footprint return False, it will updated into False&lt;/span&gt;&lt;/div&gt;" style="shape=note;whiteSpace=wrap;html=1;backgroundOutline=1;darkOpacity=0.05;" parent="1" vertex="1">
                    <mxGeometry x="1540" y="1232.92" width="470" height="120" as="geometry"/>
                </mxCell>
                <mxCell id="280" style="edgeStyle=none;html=1;entryX=-0.002;entryY=0.415;entryDx=0;entryDy=0;entryPerimeter=0;endArrow=none;endFill=0;dashed=1;" parent="1" source="35" target="278" edge="1">
                    <mxGeometry relative="1" as="geometry"/>
                </mxCell>
                <mxCell id="281" value="&lt;h1 style=&quot;margin-top: 0px;&quot;&gt;&lt;font style=&quot;font-weight: normal; font-size: 30px;&quot; face=&quot;Times New Roman&quot;&gt;01.Preparation&lt;/font&gt;&lt;/h1&gt;" style="text;html=1;whiteSpace=wrap;overflow=hidden;rounded=1;fillColor=#dae8fc;strokeColor=none;align=center;" parent="1" vertex="1">
                    <mxGeometry x="-1330" width="210" height="50" as="geometry"/>
                </mxCell>
                <mxCell id="293" value="" style="group" parent="1" vertex="1" connectable="0">
                    <mxGeometry x="-1000" y="260" width="261.22" height="206.50000000000003" as="geometry"/>
                </mxCell>
                <mxCell id="289" value="" style="sketch=0;verticalLabelPosition=bottom;sketch=0;aspect=fixed;html=1;verticalAlign=top;strokeColor=none;fillColor=#000000;align=center;outlineConnect=0;pointerEvents=1;shape=mxgraph.citrix2.citrix_provisioning_server;" parent="293" vertex="1">
                    <mxGeometry x="45.75" y="30.93" width="139.73" height="90.09" as="geometry"/>
                </mxCell>
                <mxCell id="290" value="&lt;div style=&quot;text-align: center;&quot;&gt;&lt;span style=&quot;font-family: &amp;quot;Times New Roman&amp;quot;; background-color: transparent;&quot;&gt;&lt;font style=&quot;font-size: 20px;&quot;&gt;TidyParcels&lt;br&gt;with Edge Classification &amp;amp; Confidence&lt;/font&gt;&lt;/span&gt;&lt;/div&gt;" style="text;whiteSpace=wrap;html=1;rounded=1;fillColor=default;shadow=1;" parent="293" vertex="1">
                    <mxGeometry x="10" y="121.02" width="211.22" height="85.48" as="geometry"/>
                </mxCell>
                <mxCell id="284" value="" style="sketch=0;verticalLabelPosition=bottom;sketch=0;aspect=fixed;html=1;verticalAlign=top;strokeColor=none;fillColor=#000000;align=center;outlineConnect=0;pointerEvents=1;shape=mxgraph.citrix2.citrix_uber_agent;" parent="1" vertex="1">
                    <mxGeometry x="-1320" y="120.00000000000001" width="121.51" height="64.2" as="geometry"/>
                </mxCell>
                <mxCell id="304" style="edgeStyle=orthogonalEdgeStyle;html=1;shape=flexArrow;entryX=0.46;entryY=-0.01;entryDx=0;entryDy=0;entryPerimeter=0;strokeWidth=3;flowAnimation=1;" parent="1" source="285" target="289" edge="1">
                    <mxGeometry relative="1" as="geometry">
                        <mxPoint x="-890" y="280" as="targetPoint"/>
                    </mxGeometry>
                </mxCell>
                <mxCell id="285" value="&lt;div style=&quot;&quot;&gt;&lt;span style=&quot;background-color: transparent;&quot;&gt;&lt;font style=&quot;font-size: 20px;&quot; face=&quot;Times New Roman&quot;&gt;Road Network&lt;/font&gt;&lt;/span&gt;&lt;/div&gt;&lt;div style=&quot;&quot;&gt;&lt;span style=&quot;background-color: transparent;&quot;&gt;&lt;font style=&quot;font-size: 20px;&quot; face=&quot;Times New Roman&quot;&gt;with Address&lt;/font&gt;&lt;/span&gt;&lt;/div&gt;" style="text;whiteSpace=wrap;html=1;rounded=1;fillColor=default;shadow=1;align=center;" parent="1" vertex="1">
                    <mxGeometry x="-1330" y="184.2" width="150" height="65.8" as="geometry"/>
                </mxCell>
                <mxCell id="303" style="edgeStyle=orthogonalEdgeStyle;html=1;entryX=0.447;entryY=1.025;entryDx=0;entryDy=0;shape=flexArrow;entryPerimeter=0;strokeWidth=3;flowAnimation=1;" parent="1" source="287" target="290" edge="1">
                    <mxGeometry relative="1" as="geometry">
                        <Array as="points">
                            <mxPoint x="-896" y="560"/>
                        </Array>
                    </mxGeometry>
                </mxCell>
                <mxCell id="287" value="&lt;div style=&quot;&quot;&gt;&lt;span style=&quot;font-family: &amp;quot;Times New Roman&amp;quot;; background-color: transparent;&quot;&gt;&lt;font style=&quot;font-size: 20px;&quot;&gt;Parcels&lt;br&gt;with Address&lt;/font&gt;&lt;/span&gt;&lt;/div&gt;" style="text;whiteSpace=wrap;html=1;rounded=1;fillColor=default;shadow=1;align=center;" parent="1" vertex="1">
                    <mxGeometry x="-1330" y="525.8399999999999" width="150" height="65.8" as="geometry"/>
                </mxCell>
                <mxCell id="288" value="" style="sketch=0;verticalLabelPosition=bottom;sketch=0;aspect=fixed;html=1;verticalAlign=top;strokeColor=none;fillColor=#000000;align=center;outlineConnect=0;pointerEvents=1;shape=mxgraph.citrix2.citrix_app_layering;" parent="1" vertex="1">
                    <mxGeometry x="-1300.61" y="450" width="82.73" height="75.84" as="geometry"/>
                </mxCell>
                <mxCell id="314" style="edgeStyle=orthogonalEdgeStyle;html=1;strokeWidth=3;" parent="1" source="311" target="212" edge="1">
                    <mxGeometry relative="1" as="geometry">
                        <Array as="points">
                            <mxPoint x="-420" y="235"/>
                        </Array>
                    </mxGeometry>
                </mxCell>
                <mxCell id="311" value="" style="sketch=0;verticalLabelPosition=bottom;sketch=0;aspect=fixed;html=1;verticalAlign=top;strokeColor=none;fillColor=#000000;align=center;outlineConnect=0;pointerEvents=1;shape=mxgraph.citrix2.authentication_okta;" parent="1" vertex="1">
                    <mxGeometry x="-476.28" y="367.48" width="112.56" height="112.56" as="geometry"/>
                </mxCell>
                <mxCell id="313" style="edgeStyle=none;html=1;strokeWidth=3;" parent="1" source="211" target="311" edge="1">
                    <mxGeometry relative="1" as="geometry">
                        <mxPoint x="-420" y="410" as="targetPoint"/>
                    </mxGeometry>
                </mxCell>
                <mxCell id="316" style="edgeStyle=none;html=1;strokeWidth=3;" parent="1" source="290" target="311" edge="1">
                    <mxGeometry relative="1" as="geometry"/>
                </mxCell>
                <mxCell id="318" value="&lt;font style=&quot;font-size: 15px;&quot; face=&quot;Times New Roman&quot;&gt;Intergrate &lt;b&gt;parcel_in_zoning()&lt;/b&gt;&lt;/font&gt;" style="text;html=1;align=center;verticalAlign=middle;whiteSpace=wrap;rounded=0;rotation=-45;" parent="1" vertex="1">
                    <mxGeometry x="-650" y="525.84" width="250" height="30" as="geometry"/>
                </mxCell>
                <mxCell id="320" style="edgeStyle=none;html=1;entryX=0.5;entryY=1;entryDx=0;entryDy=0;strokeWidth=3;" parent="1" source="319" target="21" edge="1">
                    <mxGeometry relative="1" as="geometry"/>
                </mxCell>
                <mxCell id="319" value="" style="sketch=0;verticalLabelPosition=bottom;sketch=0;aspect=fixed;html=1;verticalAlign=top;strokeColor=none;fillColor=#000000;align=center;outlineConnect=0;pointerEvents=1;shape=mxgraph.citrix2.site_database;" parent="1" vertex="1">
                    <mxGeometry x="-455.43" y="921.95" width="70.86" height="78.05" as="geometry"/>
                </mxCell>
                <mxCell id="321" value="&lt;div style=&quot;text-align: center;&quot;&gt;&lt;font style=&quot;font-size: 20px;&quot; face=&quot;Times New Roman&quot;&gt;Zoning Atlas in Texas&lt;/font&gt;&lt;/div&gt;" style="text;whiteSpace=wrap;html=1;rounded=1;fillColor=default;shadow=1;" parent="1" vertex="1">
                    <mxGeometry x="-490" y="1000" width="150" height="65.8" as="geometry"/>
                </mxCell>
                <mxCell id="322" value="&lt;font face=&quot;Times New Roman&quot;&gt;&lt;span style=&quot;font-size: 15px;&quot;&gt;OZFS Standardlize Process&lt;/span&gt;&lt;/font&gt;" style="text;html=1;align=left;verticalAlign=middle;whiteSpace=wrap;rounded=0;rotation=0;" parent="1" vertex="1">
                    <mxGeometry x="-410" y="844.57" width="180" height="30" as="geometry"/>
                </mxCell>
                <mxCell id="323" value="&lt;font face=&quot;Times New Roman&quot;&gt;&lt;span style=&quot;font-size: 15px;&quot;&gt;Parcal Edge Classify Process&lt;/span&gt;&lt;/font&gt;" style="text;html=1;align=right;verticalAlign=middle;whiteSpace=wrap;rounded=0;rotation=0;" parent="1" vertex="1">
                    <mxGeometry x="-1190" y="370.00000000000006" width="180" height="30" as="geometry"/>
                </mxCell>
                <mxCell id="325" value="" style="endArrow=classic;startArrow=classic;html=1;strokeWidth=3;" parent="1" edge="1">
                    <mxGeometry width="50" height="50" relative="1" as="geometry">
                        <mxPoint x="-1200" y="-20" as="sourcePoint"/>
                        <mxPoint x="-70" y="-22" as="targetPoint"/>
                    </mxGeometry>
                </mxCell>
                <mxCell id="326" value="&lt;font style=&quot;font-size: 25px;&quot; face=&quot;Comic Sans MS&quot;&gt;08/2024&lt;/font&gt;" style="text;html=1;align=center;verticalAlign=middle;whiteSpace=wrap;rounded=0;" parent="1" vertex="1">
                    <mxGeometry x="-1330" y="-40" width="130" height="30" as="geometry"/>
                </mxCell>
                <mxCell id="327" value="&lt;font style=&quot;font-size: 25px;&quot; face=&quot;Comic Sans MS&quot;&gt;11/2024&lt;/font&gt;" style="text;html=1;align=center;verticalAlign=middle;whiteSpace=wrap;rounded=0;" parent="1" vertex="1">
                    <mxGeometry x="-190" y="1" width="130" height="30" as="geometry"/>
                </mxCell>
                <mxCell id="328" value="" style="endArrow=classic;startArrow=classic;html=1;strokeWidth=3;" parent="1" edge="1">
                    <mxGeometry width="50" height="50" relative="1" as="geometry">
                        <mxPoint x="-60" y="16" as="sourcePoint"/>
                        <mxPoint x="1408.2289341517858" y="16" as="targetPoint"/>
                    </mxGeometry>
                </mxCell>
                <mxCell id="329" value="&lt;font style=&quot;font-size: 25px;&quot; face=&quot;Comic Sans MS&quot;&gt;04/2025&lt;/font&gt;" style="text;html=1;align=center;verticalAlign=middle;whiteSpace=wrap;rounded=0;" parent="1" vertex="1">
                    <mxGeometry x="1290" y="41" width="130" height="30" as="geometry"/>
                </mxCell>
                <mxCell id="330" value="" style="endArrow=classic;startArrow=classic;html=1;strokeWidth=3;" parent="1" edge="1">
                    <mxGeometry width="50" height="50" relative="1" as="geometry">
                        <mxPoint x="1430" y="54.57" as="sourcePoint"/>
                        <mxPoint x="3240" y="52" as="targetPoint"/>
                    </mxGeometry>
                </mxCell>
                <mxCell id="331" value="&lt;font style=&quot;font-size: 25px;&quot; face=&quot;Comic Sans MS&quot;&gt;05/2025&lt;/font&gt;" style="text;html=1;align=center;verticalAlign=middle;whiteSpace=wrap;rounded=0;" parent="1" vertex="1">
                    <mxGeometry x="3260" y="41" width="130" height="30" as="geometry"/>
                </mxCell>
                <mxCell id="332" value="&lt;h1 style=&quot;margin-top: 0px;&quot;&gt;&lt;font style=&quot;font-weight: normal; font-size: 30px;&quot; face=&quot;Times New Roman&quot;&gt;03.Analysis&lt;/font&gt;&lt;/h1&gt;" style="text;html=1;whiteSpace=wrap;overflow=hidden;rounded=1;fillColor=#d5e8d4;strokeColor=none;align=center;" parent="1" vertex="1">
                    <mxGeometry x="1440" y="78" width="160" height="52" as="geometry"/>
                </mxCell>
            </root>
        </mxGraphModel>
    </diagram>
</mxfile>